<svg xmlns="http://www.w3.org/2000/svg" width="2058.893" height="1085.437" viewBox="0 0 2058.893 1085.437">
  <g id="BG" transform="translate(433.42 -12.071)">
    <g id="Groupe_351" data-name="Groupe 351" transform="translate(-430.92 14.769)">
      <path id="Tracé_1012" data-name="Tracé 1012" d="M-413.406,1093.49H170.229c118.229,0,224.78-77,269.836-195.013l86.417-226.334C567.6,564.45,660.4,490.032,767.776,478.64l140.24-14.878c103.452-10.974,183.364-102.988,186.866-215.149,2.429-78,41.309-151.446,107.551-182.7,69.015-32.565,126.856-45.882,208.536-52.663" transform="translate(413.406 -13.251)" fill="none" stroke="rgba(199,54,54,0.44)" stroke-linecap="round" stroke-width="5" stroke-dasharray="0.05 20" opacity="0.043"/>
      <path id="Tracé_1013" data-name="Tracé 1013" d="M-403.406,1093.49H180.229c118.229,0,224.78-77,269.836-195.013l86.417-226.334C577.6,564.45,670.4,490.032,777.776,478.64l140.24-14.878c103.452-10.974,183.363-102.988,186.866-215.149,2.429-78,41.309-151.446,107.551-182.7,69.015-32.565,126.856-45.882,208.536-52.663" transform="translate(413.83 -13.251)" fill="none" stroke="rgba(199,54,54,0.44)" stroke-linecap="round" stroke-width="5" stroke-dasharray="0.05 20" opacity="0.087"/>
      <path id="Tracé_1014" data-name="Tracé 1014" d="M-393.406,1093.49H190.229c118.229,0,224.78-77,269.836-195.013l86.417-226.334C587.6,564.45,680.4,490.032,787.776,478.64l140.24-14.878c103.452-10.974,183.364-102.988,186.866-215.149,2.429-78,41.309-151.446,107.551-182.7,69.015-32.565,126.856-45.882,208.536-52.663" transform="translate(414.253 -13.251)" fill="none" stroke="rgba(199,54,54,0.44)" stroke-linecap="round" stroke-width="5" stroke-dasharray="0.05 20" opacity="0.13"/>
      <path id="Tracé_1015" data-name="Tracé 1015" d="M-383.406,1093.49H200.229c118.229,0,224.78-77,269.836-195.013l86.417-226.334C597.6,564.45,690.4,490.032,797.776,478.64l140.24-14.878c103.452-10.974,183.363-102.988,186.866-215.149,2.429-78,41.309-151.446,107.551-182.7,69.015-32.565,126.856-45.882,208.536-52.663" transform="translate(414.677 -13.251)" fill="none" stroke="rgba(199,54,54,0.44)" stroke-linecap="round" stroke-width="5" stroke-dasharray="0.05 20" opacity="0.174"/>
      <path id="Tracé_1016" data-name="Tracé 1016" d="M-373.406,1093.49H210.229c118.229,0,224.78-77,269.836-195.013l86.417-226.334C607.6,564.45,700.4,490.032,807.776,478.64l140.24-14.878c103.452-10.974,183.364-102.988,186.866-215.149,2.429-78,41.309-151.446,107.551-182.7,69.015-32.565,126.856-45.882,208.536-52.663" transform="translate(415.101 -13.251)" fill="none" stroke="rgba(199,54,54,0.44)" stroke-linecap="round" stroke-width="5" stroke-dasharray="0.05 20" opacity="0.217"/>
      <path id="Tracé_1017" data-name="Tracé 1017" d="M-363.406,1093.49H220.229c118.229,0,224.78-77,269.836-195.013l86.417-226.334C617.6,564.45,710.4,490.032,817.776,478.64l140.24-14.878c103.456-10.974,183.363-102.988,186.866-215.149,2.429-78,41.309-151.446,107.551-182.7,69.015-32.565,126.856-45.882,208.536-52.663" transform="translate(415.524 -13.251)" fill="none" stroke="rgba(199,54,54,0.44)" stroke-linecap="round" stroke-width="5" stroke-dasharray="0.05 20" opacity="0.261"/>
      <path id="Tracé_1018" data-name="Tracé 1018" d="M-353.406,1093.49H230.229c118.229,0,224.78-77,269.836-195.013l86.417-226.334C627.6,564.45,720.4,490.032,827.776,478.64l140.24-14.878c103.456-10.974,183.364-102.988,186.866-215.149,2.429-78,41.309-151.446,107.551-182.7,69.015-32.565,126.856-45.882,208.536-52.663" transform="translate(415.948 -13.251)" fill="none" stroke="rgba(199,54,54,0.44)" stroke-linecap="round" stroke-width="5" stroke-dasharray="0.05 20" opacity="0.304"/>
      <path id="Tracé_1019" data-name="Tracé 1019" d="M-343.406,1093.49H240.229c118.229,0,224.78-77,269.836-195.013l86.417-226.334C637.6,564.45,730.4,490.032,837.776,478.64l140.24-14.878c103.456-10.974,183.364-102.988,186.866-215.149,2.429-78,41.309-151.445,107.551-182.7,69.015-32.565,126.856-45.882,208.536-52.663" transform="translate(416.372 -13.251)" fill="none" stroke="rgba(199,54,54,0.44)" stroke-linecap="round" stroke-width="5" stroke-dasharray="0.05 20" opacity="0.348"/>
      <path id="Tracé_1020" data-name="Tracé 1020" d="M-333.406,1093.49H250.229c118.229,0,224.78-77,269.836-195.013l86.417-226.334C647.6,564.45,740.4,490.032,847.776,478.64l140.24-14.878c103.456-10.974,183.363-102.988,186.866-215.149,2.429-78,41.309-151.446,107.551-182.7,69.015-32.565,126.856-45.882,208.536-52.663" transform="translate(416.795 -13.251)" fill="none" stroke="rgba(199,54,54,0.44)" stroke-linecap="round" stroke-width="5" stroke-dasharray="0.05 20" opacity="0.391"/>
      <path id="Tracé_1021" data-name="Tracé 1021" d="M-323.406,1093.49H260.229c118.229,0,224.78-77,269.836-195.013l86.417-226.334C657.6,564.45,750.4,490.032,857.776,478.64l140.24-14.878c103.456-10.974,183.364-102.988,186.866-215.149,2.429-78,41.309-151.446,107.551-182.7,69.015-32.565,126.856-45.882,208.536-52.663" transform="translate(417.219 -13.251)" fill="none" stroke="rgba(199,54,54,0.44)" stroke-linecap="round" stroke-width="5" stroke-dasharray="0.05 20" opacity="0.435"/>
      <path id="Tracé_1022" data-name="Tracé 1022" d="M-313.406,1093.49H270.229c118.229,0,224.78-77,269.836-195.013l86.417-226.334C667.6,564.45,760.4,490.032,867.776,478.64l140.24-14.878c103.456-10.974,183.363-102.988,186.866-215.149,2.429-78,41.309-151.446,107.551-182.7,69.015-32.565,126.856-45.882,208.536-52.663" transform="translate(417.643 -13.251)" fill="none" stroke="rgba(199,54,54,0.44)" stroke-linecap="round" stroke-width="5" stroke-dasharray="0.05 20" opacity="0.478"/>
      <path id="Tracé_1023" data-name="Tracé 1023" d="M-303.406,1093.49H280.229c118.229,0,224.78-77,269.836-195.013l86.417-226.334C677.6,564.45,770.4,490.032,877.776,478.64l140.24-14.878c103.456-10.974,183.364-102.988,186.866-215.149,2.429-78,41.309-151.446,107.551-182.7,69.015-32.565,126.856-45.882,208.536-52.663" transform="translate(418.066 -13.251)" fill="none" stroke="rgba(199,54,54,0.44)" stroke-linecap="round" stroke-width="5" stroke-dasharray="0.05 20" opacity="0.522"/>
      <path id="Tracé_1024" data-name="Tracé 1024" d="M-293.406,1093.49H290.229c118.229,0,224.78-77,269.836-195.013l86.417-226.334C687.6,564.45,780.4,490.032,887.776,478.64l140.24-14.878c103.456-10.974,183.363-102.988,186.866-215.149,2.429-78,41.309-151.446,107.551-182.7,69.015-32.565,126.856-45.882,208.536-52.663" transform="translate(418.49 -13.251)" fill="none" stroke="rgba(199,54,54,0.44)" stroke-linecap="round" stroke-width="5" stroke-dasharray="0.05 20" opacity="0.565"/>
      <path id="Tracé_1025" data-name="Tracé 1025" d="M-283.406,1093.49H300.229c118.229,0,224.78-77,269.836-195.013l86.417-226.334C697.6,564.45,790.4,490.032,897.776,478.64l140.24-14.878c103.456-10.974,183.364-102.988,186.866-215.149,2.429-78,41.309-151.446,107.551-182.7,69.015-32.565,126.856-45.882,208.536-52.663" transform="translate(418.913 -13.251)" fill="none" stroke="rgba(199,54,54,0.44)" stroke-linecap="round" stroke-width="5" stroke-dasharray="0.05 20" opacity="0.609"/>
      <path id="Tracé_1026" data-name="Tracé 1026" d="M-273.406,1093.49H310.229c118.229,0,224.78-77,269.836-195.013l86.417-226.334C707.6,564.45,800.4,490.032,907.776,478.64l140.24-14.878c103.456-10.974,183.363-102.988,186.866-215.149,2.429-78,41.309-151.446,107.551-182.7,69.015-32.565,126.856-45.882,208.536-52.663" transform="translate(419.337 -13.251)" fill="none" stroke="rgba(199,54,54,0.44)" stroke-linecap="round" stroke-width="5" stroke-dasharray="0.05 20" opacity="0.652"/>
      <path id="Tracé_1027" data-name="Tracé 1027" d="M-263.406,1093.49H320.229c118.229,0,224.78-77,269.836-195.013l86.417-226.334C717.6,564.45,810.4,490.032,917.776,478.64l140.241-14.878c103.455-10.974,183.362-102.988,186.865-215.149,2.429-78,41.309-151.446,107.551-182.7,69.015-32.565,126.856-45.882,208.536-52.663" transform="translate(419.761 -13.251)" fill="none" stroke="rgba(199,54,54,0.44)" stroke-linecap="round" stroke-width="5" stroke-dasharray="0.05 20" opacity="0.696"/>
      <path id="Tracé_1028" data-name="Tracé 1028" d="M-253.406,1093.49H330.229c118.229,0,224.78-77,269.836-195.013l86.417-226.334C727.6,564.45,820.4,490.032,927.776,478.64l140.241-14.878c103.455-10.974,183.362-102.988,186.865-215.149,2.429-78,41.309-151.445,107.551-182.7,69.015-32.565,126.856-45.882,208.536-52.663" transform="translate(420.184 -13.251)" fill="none" stroke="rgba(199,54,54,0.44)" stroke-linecap="round" stroke-width="5" stroke-dasharray="0.05 20" opacity="0.739"/>
      <path id="Tracé_1029" data-name="Tracé 1029" d="M-243.406,1093.49H340.229c118.229,0,224.78-77,269.836-195.013l86.417-226.334C737.6,564.45,830.4,490.032,937.776,478.64l140.241-14.878c103.455-10.974,183.362-102.988,186.865-215.149,2.429-78,41.309-151.446,107.551-182.7,69.015-32.565,126.856-45.882,208.536-52.663" transform="translate(420.608 -13.251)" fill="none" stroke="rgba(199,54,54,0.44)" stroke-linecap="round" stroke-width="5" stroke-dasharray="0.05 20" opacity="0.783"/>
      <path id="Tracé_1030" data-name="Tracé 1030" d="M-233.406,1093.49H350.229c118.229,0,224.78-77,269.836-195.013l86.417-226.334C747.6,564.45,840.4,490.032,947.776,478.64l140.241-14.878c103.455-10.974,183.363-102.988,186.865-215.149,2.429-78,41.309-151.446,107.551-182.7,69.015-32.565,126.856-45.882,208.536-52.663" transform="translate(421.032 -13.251)" fill="none" stroke="rgba(199,54,54,0.44)" stroke-linecap="round" stroke-width="5" stroke-dasharray="0.05 20" opacity="0.826"/>
      <path id="Tracé_1031" data-name="Tracé 1031" d="M-223.406,1093.49H360.229c118.229,0,224.78-77,269.836-195.013l86.417-226.334C757.6,564.45,850.4,490.032,957.776,478.64l140.241-14.878c103.455-10.974,183.362-102.988,186.865-215.149,2.429-78,41.309-151.446,107.551-182.7,69.015-32.565,126.856-45.882,208.536-52.663" transform="translate(421.455 -13.251)" fill="none" stroke="rgba(199,54,54,0.44)" stroke-linecap="round" stroke-width="5" stroke-dasharray="0.05 20" opacity="0.87"/>
      <path id="Tracé_1032" data-name="Tracé 1032" d="M-213.406,1093.49H370.229c118.229,0,224.78-77,269.836-195.013l86.417-226.334C767.6,564.45,860.4,490.032,967.776,478.64l140.241-14.878c103.455-10.974,183.363-102.988,186.865-215.149,2.429-78,41.309-151.446,107.551-182.7,69.015-32.565,126.856-45.882,208.536-52.663" transform="translate(421.879 -13.251)" fill="none" stroke="rgba(199,54,54,0.44)" stroke-linecap="round" stroke-width="5" stroke-dasharray="0.05 20" opacity="0.913"/>
      <path id="Tracé_1033" data-name="Tracé 1033" d="M-203.406,1093.49H380.229c118.229,0,224.78-77,269.836-195.013l86.417-226.334C777.6,564.45,870.4,490.032,977.776,478.64l140.241-14.878c103.455-10.974,183.362-102.988,186.865-215.149,2.429-78,41.309-151.446,107.551-182.7,69.015-32.565,126.856-45.882,208.536-52.663" transform="translate(422.303 -13.251)" fill="none" stroke="rgba(199,54,54,0.44)" stroke-linecap="round" stroke-width="5" stroke-dasharray="0.05 20" opacity="0.957"/>
      <path id="Tracé_1034" data-name="Tracé 1034" d="M-193.406,1093.49H390.229c118.229,0,224.779-77,269.836-195.013l86.417-226.334C787.6,564.45,880.4,490.032,987.776,478.64l140.241-14.878c103.455-10.974,183.363-102.988,186.865-215.149,2.429-78,41.309-151.445,107.551-182.7,69.015-32.565,126.856-45.882,208.536-52.663" transform="translate(422.726 -13.251)" fill="none" stroke="rgba(199,54,54,0.44)" stroke-linecap="round" stroke-width="5" stroke-dasharray="0.05 20"/>
    </g>
  </g>
</svg>
